<?xml version="1.0" encoding="utf-8"?>
<!-- Generator: Adobe Illustrator 21.1.0, SVG Export Plug-In . SVG Version: 6.00 Build 0)  -->
<svg version="1.1" id="Layer_1" xmlns="http://www.w3.org/2000/svg" xmlns:xlink="http://www.w3.org/1999/xlink" x="0px" y="0px"
	 viewBox="0 0 48 48" enable-background="new 0 0 48 48" xml:space="preserve">
<path fill="#FA6600" d="M24,45H3.7l1.2-1.6c1.2-1.7,2.5-3.5,3.6-5.2C4.9,34.3,3,29.3,3,24C3,12.4,12.4,3,24,3s21,9.4,21,21
	S35.6,45,24,45z M7.7,43H24c10.5,0,19-8.5,19-19S34.5,5,24,5S5,13.5,5,24c0,5,1.9,9.8,5.5,13.4l0.6,0.6l-0.4,0.7
	C9.7,40.1,8.7,41.6,7.7,43z M33,28H13v-2h20V28z M26,21H13v-2h13V21z"/>
</svg>
